<?xml version="1.0" encoding="utf-8"?>
<!-- Generator: Adobe Illustrator 24.2.1, SVG Export Plug-In . SVG Version: 6.00 Build 0)  -->
<svg version="1.1" id="Layer_1" xmlns="http://www.w3.org/2000/svg" xmlns:xlink="http://www.w3.org/1999/xlink" x="0px" y="0px"
	 viewBox="0 0 216 216" style="enable-background:new 0 0 216 216;" xml:space="preserve">
<style type="text/css">
	.st0{fill:#FFFFFF;stroke:#276242;stroke-miterlimit:10;}
	.st1{fill:#97C93E;}
	.st2{fill:#276242;}
	.st3{fill:#03A76A;}
	.st4{display:none;}
	.st5{display:inline;fill:#99CA41;}
	.st6{display:inline;fill:#296444;}
	.st7{display:inline;fill:#2A6545;}
	.st8{display:inline;fill:#2B6546;}
	.st9{display:inline;fill:#99CA42;}
	.st10{display:inline;fill:#2B6545;}
	.st11{display:inline;fill:#98CA40;}
	.st12{display:inline;fill:#296445;}
	.st13{display:inline;fill:#31694B;}
	.st14{display:inline;fill:#276243;}
	.st15{display:inline;fill:#326A4C;}
	.st16{display:inline;fill:#336B4D;}
	.st17{display:inline;fill:#AFD569;}
	.st18{display:inline;fill:#65846B;}
	.st19{display:inline;fill:#688D75;}
	.st20{display:inline;fill:#719D89;}
	.st21{display:inline;fill:#B4DD86;}
	.st22{display:inline;fill:#EBF1EE;}
	.st23{display:inline;fill:#F6FBEF;}
	.st24{display:inline;fill:#F7F9F8;}
	.st25{display:inline;fill:#F1F4F2;}
</style>
<path class="st0" d="M187,216H29c-16,0-29-13-29-29V29C0,13,13,0,29,0H187c16,0,29,13,29,29V187C216,203,203,216,187,216z"/>
<g id="Layer_2_1_">
</g>
<g id="Layer_1_1_">
	<g>
		<path class="st1" d="M197.3,166.7c1,1.8,1.9,3.6,3.1,5.2c0.6,0.8,1.3,1.6,1.6,2.6c-0.2,0.2-0.4,0.5-0.7,0.6
			c-0.4,0.1-0.8,0.1-1.1,0.1c-46.1,0-92.3,0-138.5,0c-0.2,0-0.5,0-0.7,0c-0.3-0.1-0.6-0.1-1.3-0.2c1.3-1.2,2.4-2.2,3.4-3.3
			c0.3-0.3,0.5-0.7,0.8-1.1l0,0c0.4,0,0.6-0.1,0.6-0.5l0,0c0.2-0.1,0.4-0.2,0.5-0.4c1.6-1.8,3.6-3.1,5.5-4.5c1.8-1.3,3.6-2.7,5.4-4
			c0.3-0.2,0.6-0.4,1-0.5c1.6-0.9,3.1-1.9,4.6-2.8c2.2-1.3,4.3-2.8,6.6-4c1.3-0.8,2.8-1.3,4.2-2c0.9-0.4,1.8-0.8,2.7-1.3
			c2.1-1,4-1.9,6.1-2.9c1.6-0.7,3.3-1.4,5-2.1c1.4-0.5,2.9-1,4.3-1.6c1.2-0.5,2.4-1,3.7-1.4c2.8-0.9,5.6-1.8,8.4-2.7
			c1.9-0.6,3.8-1.3,5.7-1.8c1.2-0.4,2.4-0.5,3.6-0.7c0.9-0.2,1.9-0.4,2.8-0.6c1.2-0.3,2.4-0.7,3.6-1c1.1-0.2,2.2-0.4,3.3-0.6
			c3-0.4,5.9-0.8,8.9-1.3c4.5-0.7,9.1-1,13.6-1.3c3.2-0.2,6.4-0.5,9.7-0.5c0.2,0,0.4,0,0.7,0.1c1.1,1.6,2.3,3.3,3.4,5.1
			c1.4,2.1,2.7,4.3,4.1,6.5c1.3,1.9,2.5,3.9,3.8,5.8c1.1,1.8,2.3,3.6,3.5,5.5c1.1,1.6,2.2,3.3,3.3,5c-0.1,0.5,0,0.8,0.6,0.8
			c0,0.1,0.1,0.2,0.1,0.2c-0.1,0.7,0.1,1,0.8,1l0,0c0.2,0.2,0.3,0.4,0.5,0.5c0,0.1,0.1,0.2,0.1,0.3c0.1,0.8,0.3,1.4,1.1,1.7v0.1
			c0.3,0.8,0.6,1.5,1,2.2C196.6,166.5,197,166.5,197.3,166.7z"/>
		<path class="st2" d="M106.5,25.3c0.5,0.5,1,0.9,1.3,1.4c1.3,2.1,2.7,4.2,3.9,6.3c1.8,2.8,3.5,5.7,5.3,8.5c1.4,2.2,3,4.4,4.5,6.6
			c2.1,3.3,4,6.6,6.3,9.8c1.8,2.5,3.3,5.2,5,7.8c1.9,2.8,3.6,5.7,5.4,8.6c1.5,2.2,3.1,4.4,4.6,6.7c0.8,1.2,1.5,2.5,2.3,3.7
			c1.8,2.8,3.6,5.6,5.4,8.4c0.8,1.3,1.7,2.7,2.5,4c1.2,2,2.4,4.1,3.7,6c2.4,3.3,4.5,6.8,6.7,10.3c1.6,2.4,3.2,4.8,4.8,7.2
			c0.8,1.3,1.6,2.8,2.5,4.1c0.6,1,1.4,1.9,2,2.9c0.2,0.3,0.2,0.7,0.1,1.1c-0.6-0.4-1.2-0.8-1.8-1.3c-2.7-2-5.6-3.8-8.5-5.4
			c-2.5-1.3-5-2.8-7.4-4c-2.7-1.3-5.4-2.5-8.1-3.9c-2.6-1.4-5.3-2.5-8-3.6c-1-0.4-1.9-0.9-3-1.3c-1.2-0.5-2.5-1.1-3.7-1.6
			c-1.3-0.5-2.6-1.1-3.9-1.6c-2.5-0.9-5-1.8-7.5-2.7c-0.6-0.2-1.2-0.5-1.8-0.8c-2.6-1-5.2-1.9-7.9-2.8c-2.8-0.9-5.8-1.6-8.6-2.7
			c-1.6-0.6-3.4-0.7-5-1.7c-0.8-0.5-1.8-0.5-2.7-0.7c-1.2-0.3-2.4-0.7-3.7-1c-0.8-0.2-1.8-0.5-2.6-0.7c-1.2-0.2-2.4-0.4-3.6-0.7
			c-0.7-0.2-1.3-0.5-2-0.6c-2.4-0.5-4.8-1-7.2-1.6c-1.1-0.2-2.2-0.5-3.4-0.7c-1.9-0.3-3.7-0.5-5.6-0.7c-1.9-0.2-2.1-0.5-1-2.1
			c1.3-2,2.6-4,3.9-6c2.2-3.2,4.3-6.3,6.5-9.5c1.3-1.9,2.5-3.8,3.7-5.7c1-1.6,2.1-3.1,3.1-4.7c2.5-3.7,5-7.5,7.5-11.3
			c2.4-3.6,4.8-7.3,7.2-11c2.2-3.3,4.3-6.6,6.5-10C105.1,27.6,105.7,26.6,106.5,25.3z"/>
		<path class="st3" d="M24.6,152.2c0.8-1.3,1.4-2.7,2.4-3.9c1.1-1.5,2-3.2,3-4.8c1.1-1.8,2.2-3.5,3.3-5.3c1.4-2.2,2.8-4.5,4.2-6.7
			c1.9-3,3.9-6,5.9-8.9c1.4-2.3,2.8-4.6,4.3-6.9c1.7-2.7,3.4-5.3,5.2-8c0.9-1.4,1.7-3,2.7-4.3c1.4-2.2,2.8-4.3,4.2-6.5
			c0.5-0.8,0.9-1.6,1.4-2.5c1.4,0.2,2.8,0.5,4.1,0.8c0.5,0.1,1,0.2,1.5,0.4s1,0.4,1.4,0.5c1.2,0.3,2.4,0.6,3.6,0.9
			c2.1,0.5,4.2,1,6.3,1.6c0.7,0.2,1.5,0.4,2.2,0.6c1.8,0.5,3.6,1,5.3,1.5c2.1,0.7,4.2,1.4,6.3,2.1c3.6,1.3,7.2,2.5,10.7,3.9
			c2.7,1.1,5.4,2.2,7.9,3.6c3.3,1.8,6.5,3.7,9.7,5.6c0.4,0.2,0.8,0.6,1.2,0.9c0.8,0.7,1.7,1.4,2.5,2.1c0.5,0.4,1.1,0.6,1.3,1.4
			c-2.1,0.2-4,0.4-6.1,0.5c-2.4,0.1-4.6,0-6.9,0.7c-1.6,0.5-3.5,0.1-5.2,0.6c-1.2,0.4-2.5,0.2-3.8,0.5c-1.4,0.4-2.9,0.2-4.3,0.7
			c-1.5,0.4-3.1,0.5-4.6,0.7c-0.1,0-0.2,0.1-0.3,0.1c-1.4,0.4-2.8,0.8-4.2,1.1c-1.8,0.4-3.6,0.8-5.4,1.3c-1.8,0.5-3.7,1-5.5,1.6
			c-0.7,0.2-1.3,0.5-1.9,0.8c-1.5,0.5-3,0.8-4.5,1.3c-1.4,0.5-2.8,1.1-4.2,1.6c-1.8,0.7-3.7,1.3-5.5,2c-1.8,0.7-3.5,1.6-5.3,2.4
			c-0.7,0.3-1.4,0.6-2.2,1c-2.4,1.1-4.8,2.4-7.1,3.6c-0.7,0.3-1.3,0.7-1.9,1.1c-1.8,1-3.6,1.9-5.3,3c-0.7,0.4-1.7,0.5-1.9,1.5
			c-0.1,0.1-0.1,0.1-0.1,0.1c-0.3,0.1-0.7,0.1-1,0.2c-1.6,1-3.1,2.2-4.6,3.1c-0.7,0.4-1.2,0.8-1.5,1.5c-0.1,0.1-0.1,0.1-0.1,0.1
			c-0.4,0.2-0.8,0.2-1.1,0.5c-1.6,1.2-3.3,2.5-4.9,3.7c-0.7,0.5-1.3,1.1-1.9,1.7c-0.2,0.2-0.2,0.5-0.3,0.7l-0.1,0.1
			c-1.1,0.1-1.6,1.3-2.7,1.7c-0.1-0.2-0.2-0.4-0.2-0.6c0-0.1,0.1-0.2,0.1-0.3c0.2-0.2,0.5-0.3,0.6-0.5c0.6-0.9,1.1-1.8,1.7-2.8
			c0.2-0.4,0.4-0.8,0.6-1.2c0-0.1,0.1-0.2,0.1-0.4C24.3,153.4,24.5,152.8,24.6,152.2z"/>
		<path class="st1" d="M64,170.3c-0.2,0.4-0.5,0.8-0.8,1.1c-1.1,1-2.2,2.1-3.4,3.3c0.7,0.1,1,0.2,1.3,0.2c0.2,0.1,0.5,0,0.7,0
			c46.1,0,92.3,0,138.5,0c0.4,0,0.8,0.1,1.1-0.1c0.2-0.1,0.4-0.4,0.7-0.6c0.8,0.1,0.8,0.5,0.8,1.2c-0.9,0.3-141.2,0.5-143.3,0.2
			c-0.2-0.1-0.5-0.2-0.8-0.4c0.3-0.4,0.5-0.7,0.8-1c1-1,1.9-2.1,3-3.1C62.8,171,63.4,170.7,64,170.3z"/>
		<path class="st3" d="M39.2,145.9c0.2-1,1.3-1.1,1.9-1.5c1.7-1.1,3.5-2,5.3-3c0.6-0.4,1.2-0.7,1.9-1.1c2.4-1.2,4.8-2.4,7.1-3.6
			c0.7-0.4,1.4-0.6,2.2-1c1.8-0.8,3.5-1.7,5.3-2.4c1.8-0.7,3.6-1.3,5.5-2c1.4-0.5,2.8-1.1,4.2-1.6c1.4-0.5,3-0.8,4.5-1.3
			c0.7-0.2,1.3-0.6,1.9-0.8c1.8-0.5,3.6-1.1,5.5-1.6c1.8-0.5,3.6-0.8,5.4-1.3c1.4-0.4,2.8-0.7,4.2-1.1c0.1,0,0.2-0.1,0.3-0.1
			c1.6-0.2,3.1-0.3,4.6-0.7c1.4-0.4,3-0.3,4.3-0.7c1.3-0.4,2.6-0.2,3.8-0.5c1.8-0.5,3.6-0.1,5.2-0.6c2.3-0.7,4.6-0.6,6.9-0.7
			c2-0.1,4-0.4,6.1-0.5c-0.2-0.8-0.9-1-1.3-1.4c-0.8-0.7-1.6-1.4-2.5-2.1c0.2,0.1,0.5,0,0.7,0.1c1.4,1,2.7,2.1,4,3.1
			c0.2,0.1,0.2,0.4,0.4,0.7c-0.4,0.1-0.7,0.2-1,0.2c-1.1,0.1-2.2,0.1-3.3,0.1c-2-0.1-3.9,0.2-5.8,0.5c-1.2,0.2-2.4,0.1-3.6,0.2
			c-1.3,0.1-2.5,0.4-3.9,0.5c-2,0.2-4,0.4-6,0.7c-2.7,0.4-5.3,1-7.9,1.5c-1.9,0.3-3.7,1-5.5,1.4c-2,0.5-4,0.7-6,1.3
			c-1.7,0.5-3.5,0.8-5.1,1.6c-1.3,0.7-2.8,0.8-4.2,1.3c-2.2,0.7-4.5,1.2-6.6,2.4c-1.5,0.8-3.2,1.2-4.8,1.8c-2.1,0.8-4.2,1.8-6.3,2.7
			c-1.6,0.7-3.1,1.4-4.7,2.1c-0.8,0.4-1.4,0.9-2.2,1.3c-1.6,0.8-3.5,1.4-5,2.5c-1.7,1.2-3.6,2-5.3,3.1
			C39.5,145.9,39.3,145.9,39.2,145.9z"/>
		<path class="st3" d="M23.5,157.5c0.1-0.2,0.1-0.5,0.3-0.7c0.6-0.6,1.3-1.1,1.9-1.7c1.6-1.3,3.3-2.5,4.9-3.7
			c0.3-0.2,0.7-0.3,1.1-0.5c-0.4,0.4-0.7,0.8-1.1,1.1c-2.2,1.1-3.7,3.1-5.9,4.5C24.3,156.8,23.9,157.2,23.5,157.5z"/>
		<path class="st3" d="M20.5,158.7c0.1,0.2,0.1,0.4,0.2,0.6c1-0.4,1.5-1.6,2.7-1.7c-1.5,1.4-3,2.8-4.5,4.2c-0.1,0.1-0.3,0-0.5-0.1
			C18.9,160.6,19.2,159.3,20.5,158.7z"/>
		<path class="st3" d="M31.9,150.9c0.3-0.7,0.8-1.1,1.5-1.5c1.6-1,3.1-2.1,4.6-3.1c0.2-0.2,0.6-0.2,1-0.2c-0.4,0.4-0.7,0.7-1.1,1
			c-1.8,1.1-3.4,2.3-5.2,3.4C32.4,150.7,32.2,150.8,31.9,150.9z"/>
		<path class="st3" d="M23.5,154c-0.2,0.4-0.4,0.8-0.6,1.2c-0.5,0.9-1.1,1.9-1.7,2.8c-0.1,0.2-0.4,0.4-0.6,0.5
			c0.8-1.4,1.6-2.9,2.4-4.3C23,154,23.3,154,23.5,154z"/>
		<path class="st1" d="M197.3,166.7c-0.2-0.1-0.7-0.1-0.7-0.3c-0.4-0.7-0.7-1.5-1-2.2c0.1,0.1,0.4,0.1,0.4,0.1
			C196.3,165,196.8,165.8,197.3,166.7z"/>
		<path class="st1" d="M195.5,164.1c-0.8-0.3-1-1-1.1-1.7C195.1,162.6,195.3,163.3,195.5,164.1z"/>
		<path class="st3" d="M24.6,152.2c-0.1,0.7-0.3,1.2-1,1.4C23.6,152.9,24,152.4,24.6,152.2z"/>
		<path class="st1" d="M193.7,161.4c-0.7,0-0.9-0.3-0.8-1C193.6,160.5,193.9,160.8,193.7,161.4z"/>
		<path class="st1" d="M193,160.3c-0.5-0.1-0.7-0.4-0.6-0.8C192.5,159.6,192.7,160,193,160.3z"/>
		<path class="st1" d="M64.6,169.8c0,0.4-0.2,0.6-0.6,0.5C64.2,170.2,64.4,170,64.6,169.8z"/>
		<path class="st1" d="M194.3,162c-0.2-0.2-0.3-0.4-0.5-0.5C194.1,161.5,194.4,161.6,194.3,162z"/>
		<path class="st1" d="M65.1,169.4c-0.2,0.1-0.4,0.2-0.5,0.4C64.8,169.7,64.9,169.6,65.1,169.4z"/>
		<g class="st4">
			<path class="st5" d="M211.7,205.4c0.7,2.9,1.5,5.9,2.2,8.8c0.4,1.8,0.8,3.4,1.4,5.1c0.7,1.9,0.9,3.9,1.3,5.9
				c0.2,0.8,0.5,1.5,0.8,2.5c3.3-8,6.2-15.9,9.4-23.6c3.6,0,6.9,0,10.4,0c0.1,0.3,0.2,0.7,0.2,1c-0.1,2.5-0.2,4.9-0.4,7.4
				c-0.1,1-0.4,1.9-0.5,3c-0.2,2-0.2,3.9-0.3,5.9c-0.2,3.1-0.4,6.2-0.6,9.4c-0.2,2.3-0.3,4.6-0.5,6.9c0,0.2-0.1,0.5-0.1,0.7
				c-1,0.4-6.4,0.5-8.2,0.1c0.1-1.3-0.2-2.7,0.3-4c0.1-0.4,0.1-0.7,0.2-1.1c0.1-1.8-0.1-3.7,0.2-5.5c0.4-2.7,0.5-5.3,0.5-8
				c0-0.4-0.1-0.7-0.4-1c-2.7,6.6-5.5,13.3-8.2,19.9c-2,0-3.9,0-5.7,0c-1.8-6.6-3.6-13.2-5.3-19.7c-0.1,0-0.2,0-0.2,0
				c-0.3,1.8-0.6,3.5-0.8,5.3c-0.2,2.7-0.4,5.4-0.5,8c-0.1,1.7-0.1,3.4-0.2,5.1c0,0.4,0,0.8,0,1.1c-1,0.5-5.4,0.6-8.2,0.3
				c0-0.5,0-1.1,0-1.6c0.1-0.1,0.4-0.1,0.4-0.2c0.2-1.4,0.3-2.8,0.1-4.2c0.1-1.3,0.1-2.7,0.1-4c0.1-0.1,0.4-0.2,0.4-0.4
				c0.1-1.5,0.1-3.1,0.1-4.6c0.1-1.3,0.1-2.5,0.1-3.7c0.1-0.1,0.3-0.1,0.4-0.2c0.1-1.4,0.2-3,0.1-4.4c0.1-1.4,0.1-2.9,0.1-4.3
				c0.5,0,0.8-0.2,0.7-0.8c-0.1-1.2-0.1-2.5-0.1-3.7c0-0.5,0-0.9,0-1.4c2.8,0,5.6,0.1,8.3,0C210.2,204.8,211,204.9,211.7,205.4z"/>
			<path class="st6" d="M-4.9,220.8c0-0.8,0.1-1.5,0.1-2.3c0.2-0.2,0.4-0.3,0.4-0.5c0.1-0.8,0.2-1.7,0.2-2.5c0-1.1-0.1-2.2-0.2-3.4
				c0-0.7,0-1.3,0.1-2c0.7-0.2,0.4-0.8,0.5-1.2c0.1-1.3,0.2-2.7,0.4-4c2.5,0,4.8,0,7.2,0c0.3,0,0.5,0.2,0.8,0.3l0,0
				c0,0.2-0.1,0.4,0,0.5c1.2,2.4,2.4,4.8,3.6,7.2c0.1,0.2,0.5,0.3,0.7,0.4c0.1,0.1,0.1,0.1,0.1,0.2c-0.1,0.5-0.1,0.8,0.5,0.9
				c0.1,0.1,0.1,0.1,0.1,0.2c-0.1,0.4-0.2,0.9,0.5,1c0.1,0.2,0.1,0.3,0.1,0.5c-0.1,0.4,0.1,0.7,0.5,0.7c1.3,2.5,2.5,4.9,3.8,7.4
				c0.1,0.2,0.4,0.4,0.8,0.8c0.1-1.3,0.2-2.2,0.2-3.2c0.1-1.6-0.1-3.2,0.2-4.8c0.6-3,0.4-6.1,0.7-9.2c0.1-1.2,0.4-2.4,0.5-3.6
				c2.5,0,5,0,7.7,0c0,0.7,0.1,1.3,0.1,2.1c-0.2,2.8-0.4,5.7-0.5,8.5c-0.1,1.7-0.1,3.4-0.2,5.1c-0.2,3.1-0.1,6.3-0.7,9.4
				c-0.5,3-0.2,6.1-0.7,9.3c-0.4,0.1-0.8,0.2-1.1,0.2c-2,0-4,0-5.9,0c-0.8,0-1.2-0.3-1.6-1.1c-1.1-2.4-2.4-4.8-3.6-7.2
				c-1.6-3.1-3.1-6.1-4.7-9.2c-0.5-1-1.1-2.1-1.8-3.1c-0.1,0.3-0.3,0.5-0.4,0.8c-0.2,2.1-0.4,4.2-0.5,6.3c-0.2,3.9-0.5,7.8-0.7,11.7
				c-0.1,0.5-0.2,1.1-0.4,1.6c-2.7,0-5.3,0-7.9,0c0-0.2-0.1-0.4-0.1-0.6c0-0.5,0-1.1,0-1.7c0.2-0.2,0.5-0.4,0.5-0.7
				c0.1-1.4,0.2-2.8,0.3-4.3c0-0.5-0.1-1.1-0.2-1.7c0-0.8,0.1-1.5,0.1-2.3c0.2-0.2,0.4-0.3,0.4-0.5c0.1-1.2,0.2-2.5,0.3-3.7
				C-4.7,222.3-4.8,221.5-4.9,220.8z"/>
			<path class="st7" d="M89.8,238.5c-2.6,0-5.2,0-7.8,0c-0.7,0-1.1-0.3-1.2-1c-0.2-1-0.5-2-0.5-3c0-1.5,0.2-3,0.2-4.5
				c0.1-1.8-0.8-4.4-3.4-4.5c-1.4-0.1-2.8-0.1-4.2-0.1c-0.3,0-0.7,0.1-1.1,0.1c-0.3,4.2-0.6,8.5-0.8,12.6c-1.1,0.4-6.6,0.4-8.3,0.1
				c0.1-1.8,0.1-3.6,0.5-5.4c0.4-1.4,0.2-3,0.3-4.5c0.2-3.9,0.5-7.8,0.7-11.7c0.2-2.7,0.4-5.3,0.6-7.9c0.1-1.6,0.3-3.1,0.5-4.8
				c0.4,0,0.8-0.1,1.3-0.1c3.6,0,7.2,0.1,10.9,0c2.5-0.1,4.8,0.7,7.1,1.7c2.2,0.9,3.6,2.6,4.5,4.6c0.3,0.7,0.4,1.6,0.4,2.4
				c0,1.6,0.2,3.1-0.5,4.6c-0.8,1.6-2.1,3.4-4.5,4.3c-0.1,0.5-0.1,0.8,0.6,1c1.5,0.5,2.5,1.7,3.1,3.1c0.7,1.5,0.6,3.1,0.6,4.6
				c0,0.4-0.1,0.8-0.1,1.3c-0.1,2.2-0.2,4.4,1.3,6.3C89.9,238.3,89.8,238.5,89.8,238.5z M72.2,219.3c1.5,0,2.7-0.1,3.9,0
				c1.3,0.1,2.4-0.2,3.3-0.9c1.1-0.8,1.9-1.9,2-3.4c0.1-1.2-0.5-2-1.1-3c-0.4-0.7-1-1.1-1.6-1.2c-1.8-0.4-3.6-0.8-5.7-0.4
				C72,213.2,72.6,216.2,72.2,219.3z"/>
			<path class="st7" d="M-66.6,222.8c1.6,0.5,2.6,1.8,3.3,3.2c0.8,1.8,0.5,3.7,0.5,5.6c0,0.8,0,1.6-0.1,2.5
				c-0.1,1.4,0.2,2.7,1.1,3.8c0.1,0.1,0.1,0.4,0.2,0.6c-0.4,0.1-0.7,0.1-1,0.1c-2.1,0-4.2,0-6.3,0c-1.2,0-1.1-0.1-1.7-1.1
				c-0.7-1.6-0.5-3.2-0.5-4.8c0-0.9,0.5-1.8,0.4-2.7c-0.2-1.1-0.4-2.5-1.4-3.3c-0.7-0.5-1.4-1.1-2.4-1c-1.6,0.1-3.3,0-4.9,0
				c-0.1,0.2-0.2,0.3-0.2,0.4c-0.2,3.3-0.4,6.7-0.7,10c-0.1,0.7-0.1,1.4-0.1,2.1c-1,0.4-5.7,0.5-8,0.2c0-1.5-0.1-3,0-4.5
				c0.1-2.6,0.4-5.2,0.5-7.8c0.2-3.1,0.4-6.2,0.6-9.4c0.2-2.8,0.4-5.6,0.6-8.3c0.1-1.4,0.4-2.8,0.5-4.4c0.4,0,0.7-0.1,1.1-0.1
				c4,0,7.9-0.1,11.9,0c2.7,0.1,5.1,0.8,7.4,2.2c2.2,1.4,3.8,3.5,3.8,6.4c0,2.1,0.1,4.2-1.3,6c-0.2,0.3-0.5,0.5-0.7,0.8
				c-0.4,0.3-0.7,0.6-1.1,0.9l0,0c-0.6,0.4-1.1,0.8-1.8,1.1l0,0c-0.5-0.1-0.8,0.1-0.8,0.7C-67.7,223-67.1,222.8-66.6,222.8z
				 M-79.3,219.3c1.6,0,3,0,4.3,0c2.1,0,3.8-1.2,4.6-3.1c0.8-2.1-0.2-4.6-2.3-5.4c-1.8-0.6-3.7-0.8-5.8-0.4
				C-79.5,213.2-78.9,216.2-79.3,219.3z"/>
			<path class="st7" d="M-118.3,232.9c-0.2-0.5-0.4-1.1-0.7-1.7c-0.8-1.5-0.5-3.2-0.9-4.8c-0.2-0.7,0.2-1.6,0.2-2.4
				c0.1-2,0.1-4,0.3-6c0.2-1.7,0.4-3.5,1-5c1.7-3.8,4.3-6.8,8.5-8.3c2.3-0.8,4.6-1.2,6.9-1.1c2.5,0.1,4.9,0.7,7.1,2
				c2.8,1.7,4.8,5.6,3.9,9.2c-2.5,0-5,0-7.4,0c-0.2-0.7-0.6-1.4-0.7-2.1c-0.3-1.6-1.5-2.2-2.8-2.5c-1.2-0.3-2.5-0.3-3.8,0.2
				c-2.2,0.9-3,2.7-3.9,4.7c-0.7,1.6-0.6,3.1-0.7,4.8c-0.1,2.2-0.5,4.4-0.5,6.6c0,2.3,0.8,4.3,3,5.4c0.8,0.4,1.9,0.6,2.8,0.7
				c1.1,0.1,2.2,0,3.3-0.3c1.9-0.4,2.3-0.9,2.2-2.4c-0.1-1.4,0-2.8,0-4.3c-0.8,0-1.6-0.1-2.4-0.1s-1.6,0-2.3,0
				c-0.9-0.1-1.1-0.2-1-1.1c0.1-1.3,0.3-2.7,0.5-4c4.6,0,9.1,0,13.9,0c0,0.5,0.1,1.1,0.1,1.7c-0.2,3-0.4,6-0.6,8.9
				c0,0.4-0.1,0.8-0.1,1.1c0.2,1.4-0.5,2.2-1.4,3c-1.8,1.4-3.7,2.5-5.8,3.2c-3.2,1-6.6,0.9-9.8,0.6c-0.8-0.1-1.6-0.4-2.4-0.5
				c-0.1-0.8-0.8-0.4-1.2-0.7c-0.8-0.7-1.9-1.2-2.8-1.8l-0.1-0.1c-0.2-0.2-0.4-0.3-0.5-0.5l-0.1-0.1c-0.2-0.2-0.4-0.3-0.5-0.5
				c-0.1-0.1-0.1-0.2-0.2-0.4c-0.2-0.4-0.3-0.8-0.5-1.1C-117.8,233.1-118.1,233-118.3,232.9z"/>
			<path class="st8" d="M159.4,227.8c1.6-0.5,7.1-0.4,8.1,0.1c0.1,0.5,0.1,1,0.2,1.6c0,1.3,0.8,2.4,1.9,2.7c1.7,0.6,3.4,1.2,5.3,0.4
				c0.7-0.3,1.3-0.3,2-0.7c1.4-1.1,1.5-3.9,0.4-4.8c-0.8-0.8-1.8-1.4-2.8-1.8c-1.6-0.6-3.2-1.2-4.8-1.8c-1.3-0.4-2.4-1-3.6-1.7
				c-0.8-0.5-1.7-0.9-2.4-1.5c-1.6-1.4-2.5-3.1-2.5-5.4c-0.1-2.2,0.3-4.2,1.6-6.1c1.3-1.9,3.2-3,5.2-3.9c2.5-1.1,5.1-1.4,7.8-1.3
				c2.8,0.1,5.4,0.9,7.8,2.5c2.2,1.5,4,4.8,3.5,8.1c-0.4,0.1-0.7,0.2-1.1,0.2c-1.9,0-3.7,0-5.6,0c-1.3,0-1.4-0.1-1.6-1.4
				c-0.3-2.1-1.2-2.9-3.3-3c-1.4-0.1-2.8-0.2-4.2,0.5c-1.4,0.8-2.4,2.8-1.4,4.5c0.4,0.7,1.3,1.2,2.1,1.6c1.7,0.7,3.5,1.1,5.1,1.9
				c2.2,1,4.3,2.1,6.3,3.4c1.4,0.9,2.3,2.4,2.7,4.1c0.2,0.8,0.5,1.6,0.5,2.4c0,2.5-0.7,4.7-2.4,6.6c-1.6,1.8-3.7,3-6.2,3.6
				c-2.1,0.5-4,0.5-6.1,0.5c-2.7,0.1-5.3-0.5-7.7-1.9c-2.7-1.4-4.5-3.7-4.7-6.9C159.3,229.5,159.4,228.6,159.4,227.8z"/>
			<path class="st9" d="M318.9,214.4c-0.1-0.3-0.2-0.4-0.2-0.4c0.1-2.7-1.8-4.2-4.3-3.9c-1.1,0.1-2.4-0.1-3.5,0.6
				c-1.1,0.7-1.6,1.9-1.8,3c-0.1,0.8,0.5,2,1.4,2.5c1.3,0.7,2.8,1.3,4.2,1.9c2.9,1.1,5.9,2.1,8.4,4.1c1.5,1.3,2.8,2.7,2.8,4.9
				c0,0.5,0.4,1,0.4,1.5c-0.5,2.8-0.8,5.6-3.4,7.5c-1.7,1.2-3.4,2.1-5.4,2.6c-2.8,0.8-5.6,0.6-8.3,0.4c-2.2-0.2-4.3-1-6.1-2.4
				c-1.2-0.9-2.4-1.9-3-3.3c-0.7-1.8-1-3.7-0.7-5.7c2.5-0.2,5-0.1,7.6-0.1c0.2,0.7,0.5,1.4,0.5,2.1c0.1,1.4,0.9,2.3,2.1,2.7
				c1.3,0.4,2.7,1,4,0.7c1.6-0.4,3.3-0.6,4.1-2.5c0.5-1.1,0.1-2.8-0.8-3.5c-0.9-0.7-1.9-1.3-3-1.8c-2.1-0.7-4.2-1.4-6.2-2.3
				c-1.4-0.6-2.7-1.5-3.9-2.4c-1.1-0.8-2-2-2.6-3.3c-0.2-0.4-0.2-0.8-0.2-1.3c0-1.2-0.1-2.4,0-3.6c0.1-1.1,0.4-2.1,1.2-2.9
				c0.5-0.5,0.9-1.4,1.4-1.9c1.3-1.3,2.9-2,4.5-2.7c1.1-0.5,2.3-0.5,3.4-0.8c1.2-0.3,2.4-0.4,3.5-0.4c3.1,0.2,6.2,1,8.8,3
				c1.3,1.1,2.3,2.5,2.5,4.3c0.1,0.8,0.3,1.7,0.4,2.5c0.1,0.6-0.3,1-0.8,1C323.6,214.4,321.3,214.4,318.9,214.4z"/>
			<path class="st6" d="M113.3,205.1c0.4,1.2,0.7,2.5,1.1,3.7c0.2,0.8,0.5,1.8,0.7,2.6c0.3,1.1,0.5,2.4,0.8,3.5
				c0.3,1.1,0.6,2.3,0.9,3.4c0.3,1.2,0.6,2.4,0.9,3.6c0.2,0.8,0.4,1.6,0.6,2.4c0.7,2.7,1.4,5.4,2.1,8c0.5,1.8,1,3.4,1.4,5.2
				c0.1,0.2,0.1,0.5,0.1,0.9c-2.8,0-5.6,0-8.6,0c-0.2-0.8-0.4-1.6-0.5-2.4c-0.2-1.1-0.4-2.2-0.7-3.2c-0.2-0.6-0.6-1-1.3-1
				c-2.7,0-5.4,0-8.1,0c-0.7,0-1,0.4-1.3,1c-0.7,1.8-1.3,3.7-1.9,5.6c-2.8,0-5.6,0-8.5,0c-0.4-1,0.7-1.7,0.6-2.7
				c1-1.1,1.1-2.7,1.8-4c0.8-1.8,1.6-3.7,2.3-5.6c0.9-2.3,1.7-4.6,2.5-6.9c0.4-1.1,1-2.2,1.4-3.3c0.7-1.9,1.4-3.8,2.2-5.7
				c0.2-0.5,0.4-1,0.6-1.4c0.7-0.2,1-0.5,0.6-1.1c0-0.2,0.1-0.4,0.1-0.5c0.5-0.1,0.5-0.5,0.5-0.9c0-0.1,0.1-0.2,0.1-0.3
				c0.7-0.2,0.5-0.7,0.5-1.1l0,0c2.3,0,4.6-0.1,6.8,0C111.9,204.9,112.6,205.1,113.3,205.1z M107.8,215.8c-0.7,1.6-1.2,2.8-1.8,4
				c-0.5,1.4-1.1,2.9-1.6,4.4c-0.1,0.4-0.1,0.9-0.2,1.3c2.1,0,4,0,6,0c-0.2-1.3-0.5-2.4-0.7-3.6c-0.4-1.7-0.7-3.4-1.1-5
				C108.4,216.6,108.1,216.3,107.8,215.8z"/>
			<path class="st10" d="M-9.9,238.5c-7.7,0-15.2,0-22.7,0c-0.1-1.6,0.1-3.2,0.2-4.8c0.2-1.5,0.2-3.1,0.3-4.6
				c0.2-3.9,0.2-7.9,0.8-11.8c0.5-3,0.4-5.9,0.7-8.9c0.1-1.4,0.4-2.8,0.5-4.2c7.4,0,14.7,0,22.2,0c0,0.4,0.1,0.7,0.1,1.1
				c0,1.1-0.1,2.2-0.1,3.3c0,1.8-0.1,2-1.9,2c-3.7-0.1-7.3,0-11,0c-0.5,0-1,0-1.5,0c-0.1,2.4-0.8,4.5-0.5,6.9c3.9,0,7.7,0,11.7,0
				c0.4,1.1,0.2,2.2,0.1,3.3c-0.1,1-0.2,2.1-0.4,3.3c-3.9,0-7.9,0-11.8,0c-0.4,2.6,0.1,5.2-0.7,7.5c0.3,0.8,1,0.8,1.7,0.8
				c3.7,0,7.3,0,11,0c0.5,0,1,0,1.5,0C-9.9,234.3-9.9,236.3-9.9,238.5z"/>
			<path class="st10" d="M-59,238.3c0.2-2.2,0.3-4.3,0.4-6.4c0.2-4.2,0.5-8.3,0.8-12.6c0.2-2.8,0.4-5.6,0.5-8.3
				c0.2-2.2,0.4-4.5,0.6-6.7c1-0.3,20.7-0.4,22.6-0.1c0.2,2.1-0.3,4.1-0.5,6.3c-2.5,0-4.8,0-7.2,0c-2.3,0-4.6,0-7.1,0
				c-0.1,1.1-0.1,2.2-0.2,3.3c-0.1,0.9,0.1,1.8-0.5,2.7c-0.1,0.2,0,0.5,0,0.8c3.9,0.2,7.8,0,11.8,0.1c0.4,2.1,0.1,4.2,0,6.4
				c-0.7,0.1-1.1,0.1-1.7,0.1c-3,0-6.1,0-9.1,0c-1.4,0-1.6,0.2-1.7,1.5c-0.1,2-0.1,3.9-0.2,5.9c0,0.2,0.1,0.5,0.2,0.8
				c4.6,0,9.3,0,13.9,0c0,2.1,0,4,0,6C-37.5,238.6-57.6,238.6-59,238.3z"/>
			<path class="st11" d="M261.2,209.5c0,0.2,0.1,0.4,0.1,0.5c-0.4,0.8-0.2,1.5,0.5,2.1c0,0.2,0.1,0.4,0.1,0.5
				c-0.2,0.7-0.2,1.2,0.6,1.4c0.4,1.3,0.7,2.6,1,3.9c0.2,1,0.5,2.1,0.7,3.1c0.2,1.1,0.5,2.2,0.8,3.2c0.1,0.6,0.3,1.2,0.4,1.8
				c0.1,0.2,0.1,0.5,0.1,0.7c0.8,1.3,0.8,2.9,1.3,4.3c0.5,1.9,1,3.7,1.5,5.6c0.1,0.5,0.1,1,0.2,1.6c-2.8,0-5.5,0-8.4,0
				c-0.4-1.9-0.9-3.8-1.4-6c-0.4-0.4-1-0.6-1.8-0.5c-2.7,0.1-5.3,0-7.9,0c-1.4,2.1-1.7,4.5-2.9,6.6c-2.8,0-5.5,0-8.4,0
				c1.9-5.4,4.2-10.4,6-15.6c0.2-0.1,0.6-0.1,0.6-0.2c0.2-0.8,0.5-1.6,0.7-2.5c0-0.2,0.1-0.4,0.1-0.5c0.8-0.1,0.5-0.7,0.5-1.2
				c0-0.2,0.1-0.4,0.1-0.5c0.4-0.1,0.5-0.2,0.5-0.7c0-0.2,0.1-0.4,0.1-0.5c0.8-0.1,0.5-0.7,0.5-1.2c0-0.2,0.1-0.4,0.1-0.5
				c0.8-0.7,1-1.6,1.2-2.5c0-0.1,0.1-0.2,0.1-0.3c0.8-0.7,1-1.6,1.1-2.6c0.2-0.7,0.4-1.3,0.7-2.1c0.2-0.3,0.5-0.6,0.7-1
				c0.3-0.5,0.5-1.1,0.8-1.6c3,0,5.9,0,8.7,0c0,0.3,0.1,0.5,0.1,0.8c-0.5,0.7-0.1,1.1,0.5,1.4c0,0.2,0.1,0.4,0.1,0.5
				C260.4,208.7,260.4,208.9,261.2,209.5z M255,215.9c-0.1-0.1-0.2-0.1-0.3-0.1c-1.7,2.7-2,6.1-3.6,8.9c-0.1,0.2-0.1,0.6-0.1,1
				c2,0,3.9,0,5.9,0c0.4-1.1-0.2-2.1-0.4-3C255.9,220.3,255.5,218.1,255,215.9z"/>
			<path class="st5" d="M297.4,208.9c1.3,1.9,1.9,3.9,1.8,6.2c-0.2,3.2-1.4,6.1-3.8,8.3c-1.1,1-2.6,1.6-4,2.3
				c-2.8,1.3-5.9,1.3-8.9,1.3c-0.8,0-1.6,0-2.7,0c-0.2,3.8-0.5,7.5-0.8,11.2c-0.9,0.4-5.5,0.5-8.1,0.2c0-0.4,0-0.7,0-1.1
				c0.5-0.1,0.5-0.5,0.5-0.9c0.1-1.4,0.2-2.7,0.2-4.1c0-0.4-0.1-0.7-0.2-1.1c0-0.8,0.1-1.8,0.1-2.6c0.2-0.3,0.4-0.6,0.4-0.9
				c0.1-1.3,0.2-2.5,0.3-3.8c0-0.5-0.1-1.1-0.2-1.6c0-0.8,0.1-1.5,0.1-2.3c0.2-0.2,0.4-0.5,0.4-0.8c0.1-1.1,0.2-2.2,0.3-3.4
				c0-0.7-0.1-1.3-0.2-1.9c0-0.8,0.1-1.8,0.1-2.6c0.5,0,0.8-0.2,0.7-0.8c0-1.7-0.1-3.4-0.1-5.1c0-0.2,0-0.4,0.1-0.5
				c4.9,0,9.8,0.1,14.7,0c1.7,0,3.3,0.2,4.8,1.1c0.7,0.4,1.4,0.5,2.1,0.7v0.1c0.6,0.7,1.1,1.4,1.8,2.2
				C297,208.9,297.2,208.9,297.4,208.9z M280.7,210.8c0,1.2,0.1,2.3,0,3.3c-0.1,1.6-0.1,3.3-0.3,4.9c-0.2,1.4-0.1,1.7,1.4,1.7
				c1.7-0.1,3.4-0.1,5-0.3c1.1-0.1,2-0.7,2.7-1.5c1.3-1.5,1.4-3.3,1.2-5.1c-0.3-1.8-1.9-3.1-3.8-3.2c-1.6-0.1-3.3,0-4.9,0
				C281.7,210.6,281.3,210.7,280.7,210.8z"/>
			<path class="st12" d="M52.5,211c-0.1,1.9,0.1,3.8-0.2,5.6c-0.6,3-0.2,6-0.7,9c-0.5,2.8-0.2,5.6-0.5,8.3c-0.2,1.4-0.4,3-0.5,4.4
				c-1.4,0.2-6.9,0.2-7.9-0.1c0.1-2.7,0.2-5.4,0.4-8.2c0.2-3.1,0.4-6.2,0.6-9.2c0.2-3.3,0.5-6.5,0.7-9.8c0-0.1-0.1-0.3-0.1-0.6
				c-2.7-0.2-5.5,0-8.4-0.1c-0.1-0.4-0.1-0.7-0.1-1c0.6-0.1,0.5-0.6,0.5-1c0-1.2,0.1-2.4,0.1-3.6c8.5,0,16.7,0,25.1,0
				c0,1.8,0,3.4,0,5.1l0,0c-2.7,0-5.3,0-7.9,0C52.8,210,52.3,210.1,52.5,211z"/>
			<path class="st13" d="M-22.3,251.7c0-0.2,0.1-0.4,0.1-0.5c0.5-0.2,0.6-0.7,0.5-1.1l0,0c1.1,0,2.2,0.1,3.4,0.1
				c-0.7,1.9-1.2,3.5-1.8,5.1c-0.2,0.5-0.4,0.9-0.5,1.4c0,0.1-0.1,0.2-0.1,0.3c-0.6,0.2-0.5,0.7-0.5,1.1c-0.2,0.8-0.4,1.6-0.7,2.3
				c-0.5,1.3-1,2.5-1.6,3.8c-0.5,1.4-1.1,2.8-1.6,4.2c-0.8,2-1.5,4-2.4,6.2c-0.7,0.1-1.6,0.2-2.5,0.2c-0.5,0.1-0.8-0.1-0.8-0.7
				c0-0.5,0.1-1.1,0.1-1.7c0-0.5-0.1-1-0.7-1c-0.6-4.8-1.3-9.5-1.9-14.4c-0.1,0-0.2-0.1-0.2-0.1c-0.2,0.4-0.4,0.8-0.5,1.2
				c-1.1,2.4-2.1,4.6-3.2,7c-1.3,2.9-2.6,5.8-3.7,8.7c-0.2,0.7-0.7,0.9-1.2,1c-0.7,0.1-1.4,0-2.4,0c-0.2-1.1-0.4-2.1-0.5-3.1
				c-0.4-3.8-0.7-7.5-1-11.4c-0.2-2.3-0.4-4.6-0.6-6.9c-0.1-1.1-0.3-2.2-0.5-3.4c1.1-0.6,2.3-0.4,3.4-0.3c0.5,0,0.8,0.5,0.8,1
				c0,0.5,0,1.1,0.1,1.6c0.2,3.4,0.4,6.9,0.7,10.3c0.1,1.3,0.4,2.7,0.9,4c0.5-1.2,0.9-2.5,1.4-3.7c0.5-1.2,0.9-2.5,1.7-3.7
				c0.7-1,0.9-2.4,1.4-3.6c0.8-1.8,1.5-3.7,2.4-5.4c0.1-0.3,0.5-0.5,0.8-0.6c0.6-0.1,1.3,0,1.9-0.1c0.7-0.1,1.1,0.4,1.3,1
				c0.1,0.2,0.1,0.4,0.1,0.5c0.2,2.5,0.5,5.1,0.8,7.6c0.3,2.7,0.7,5.4,1.3,8.1c1.6-3.5,2.8-7.1,4.1-10.7c0.2-0.1,0.6-0.2,0.7-0.4
				c0.2-0.8,0.4-1.6,0.6-2.4c0-0.2,0.1-0.4,0.1-0.5C-22.1,252.8-22.3,252.2-22.3,251.7z"/>
			<path class="st14" d="M140.5,210.7c0-0.5,0-1.1,0.1-1.7c0.6-0.2,0.4-0.7,0.5-1.1c0.1-1,0.2-1.9,0.4-3c2.6,0,5,0,7.4,0
				c0,0.4,0,0.8,0,1.1c-0.2,0.2-0.5,0.5-0.5,0.7c-0.1,2,0,4,0,6c0,0.5,0,1.1,0,1.7c-0.2,0.3-0.5,0.6-0.5,1c-0.1,1.9,0,3.9,0,5.8
				c0,0.8-0.1,1.5-0.1,2.3c-0.2,0.2-0.5,0.5-0.5,0.7c-0.1,1.8,0,3.6,0,5.4c0,0.7,0,1.5,0,2.2c-0.4,0.4-0.2,0.6,0.2,0.7
				c0.4,0.1,0.8,0.1,1.1,0.1c2.8,0,5.6,0,8.3,0c0.5,0,1,0.1,1.4,0.1c0.1,0.9,0.2,1.6,0.4,2.3c0,0.8-0.1,1.5-0.1,2.3
				c-0.2,0.4-0.5,0.7-0.8,1.1c-0.5,0-1,0-1.5,0c-5.9,0-11.7,0-17.5,0.1l0,0c0-0.6-0.1-1.1-0.1-1.8c0-0.7,0-1.3,0.1-2
				c0.2-0.2,0.5-0.4,0.5-0.5c0.1-0.8,0.3-1.7,0.3-2.5c0-1.1-0.1-2.2-0.2-3.3c0-0.8,0.1-1.7,0.1-2.6c0.2-0.2,0.4-0.4,0.4-0.6
				c0.1-0.5,0.2-0.9,0.2-1.4c0-1.4-0.1-2.7-0.1-4.1c0-0.8,0.1-1.5,0.1-2.3c0.2-0.2,0.4-0.4,0.5-0.6c0.1-0.7,0.2-1.5,0.2-2.2
				C140.7,213.2,140.6,211.9,140.5,210.7z"/>
			<path class="st8" d="M127.3,204.1c2.6,0,5.1,0,7.7,0c0,0.6,0.1,1.2,0.1,1.8c-0.2,4-0.5,8-0.7,12.1c-0.2,2.9-0.4,5.7-0.6,8.6
				c-0.2,2.9-0.4,5.9-0.6,8.8c-0.1,1-0.3,2-0.5,3.1c-2.5,0-5.1,0-7.7,0c0-2-0.2-4,0.1-5.9c0.4-3.3,0.4-6.5,0.6-9.8
				c0.2-2.9,0.2-5.8,0.6-8.6c0.4-2.7,0.2-5.5,0.5-8.2C126.9,205.3,127.1,204.7,127.3,204.1z"/>
			<path class="st13" d="M168.5,273.6c-0.9,2.6-0.9,5.4-1.5,8.2c-1.1,0-2.2,0-3.6,0c0.1-1,0.2-2.1,0.3-3.1c0.1-0.7,0.2-1.4,0.4-2.1
				c0.1-0.7,0.4-1.4,0.5-2.2c0.1-0.2,0.1-0.5,0.2-0.7c0.2-1.9,0.4-3.8,0.7-5.7c0.3-2.1,0.7-4.2,1-6.3c0.2-1.6,0.4-3.1,0.7-4.7
				c0.1-0.3,0.1-0.5,0.2-0.8c0.9,0,1.8,0,2.6,0c0.1,0.5,0.2,1.1,0.4,1.7c0.7-0.4,1.2-0.8,1.8-1.1c2.2-1.1,4.5-1.3,6.8-0.2
				c1.6,0.7,2.3,2.1,2.7,3.7c0.5,2,0.5,3.9,0.2,6c-0.3,1.6-0.6,3.1-1.3,4.5c-0.7,1.4-1.7,2.5-3,3.4c-2.2,1.4-6.4,2-8.7-0.5
				C168.7,273.5,168.6,273.6,168.5,273.6z M175.6,259c-0.5-1.1-1.5-1.1-2.4,0c-1.2,0.2-2.1,1-2.9,1.8c-0.1,0.1-0.2,0.3-0.2,0.5
				c-0.2,1.2-0.4,2.5-0.6,3.7c-0.1,0.5-0.1,1.1-0.2,1.7c-0.1,1-0.3,1.9-0.4,2.8c-0.1,1,0.4,1.6,1.1,2.2c1.9,1.4,5.6,0.5,6.8-1.9
				c0.7-1.4,1-2.8,1.4-4.3c0.4-1.8,0.1-3.3-0.5-4.9C177.3,259.8,176.7,259,175.6,259z"/>
			<path class="st13" d="M93.6,259c-2.8,0.8-3.5,1.9-3.7,4.3c-0.2,2.4-0.7,4.6-1,7c-0.1,0.7-0.1,1.3-0.2,2c-0.1,0.6-0.4,1.2-0.5,1.8
				c-0.1,0.7-0.5,0.8-1,0.8c-0.8,0-1.7-0.1-2.8-0.2c0.2-0.8,0.4-1.5,0.6-2.2c0.1-0.2,0.2-0.5,0.2-0.7c0.2-1.9,0.5-3.9,0.7-5.9
				c0.3-1.9,0.6-3.9,0.9-5.8c0.2-1.4,0.4-3,0.7-4.4c0.2-1.9,0.5-3.8,0.7-5.7c0-0.1,0-0.1,0-0.1c0.2-2.3,1.6-2.2,3.1-1.9
				c0.3,0.1,0.6,0.3,1,0.4c-0.8,2.9-1.2,5.9-1.4,9.2c0.7-0.4,1.1-0.6,1.6-0.8c2-1.1,4-1.1,6.2-0.6c1.8,0.5,3.1,2.3,3.1,4.3
				c-0.1,2.2-0.4,4.4-0.6,6.6c-0.1,0.6-0.2,1.2-0.3,1.8c-0.2,1.8-0.5,3.6-0.8,5.6c-1.1,0.8-2.3,0.5-3.7,0.2c0.2-1.5,0.4-2.9,0.7-4.3
				c0.1-0.2,0.1-0.5,0.1-0.7c0.2-2.1,0.4-4.1,0.7-6.2c0.2-1,0.4-1.9,0-3c-0.4-0.8-0.8-1.4-1.6-1.6C95.5,257.8,94.4,257.8,93.6,259z"
				/>
			<path class="st13" d="M206.4,274.7c-1.1,0.3-2.3,0.3-3.5-0.1c-0.1-0.6-0.1-1.1-0.2-1.9c-1.1,1.1-2.4,1.8-3.7,2.2
				c-2.1,0.7-4,0.5-5.9-0.7c-1.3-0.8-1.5-2.2-1.6-3.5c-0.2-2.8,1.9-5.5,4.6-6.3c1.5-0.4,3-0.7,4.5-0.6c1,0,2.1,0,3.1,0
				c0.2-0.5,0.3-0.9,0.5-1.3c0.7-1.9-0.4-3.5-2.4-3.6c-1.2-0.1-2.4-0.2-3.4,0.7c-0.5,0.5-0.9,1-1.5,1.7c-0.9,0-2,0-3.1,0
				c0-1.3,0.7-2.2,1.4-3c2-2.1,4.6-2.6,7.4-2.4c0.4,0,0.8,0.1,1.3,0.2c2.3,0.2,4.3,2.6,4.3,5c0,1,0.1,2.1-0.5,3
				c-0.1,0.1-0.1,0.4-0.1,0.5c-0.4,2.8-0.8,5.5-1.1,8.3C206.3,273.3,206.4,273.9,206.4,274.7z M203.8,266.3c-1.7,0-3.3-0.2-4.7,0.1
				c-1.1,0.2-2.4,0.6-3.1,1.7c-0.6,0.8-1.1,1.8-0.7,2.8c0.5,1.1,1.4,1.4,2.6,1.4c1.5-0.1,2.9-0.6,4.1-1.5c0.8-0.7,1.5-1.4,1.5-2.7
				C203.4,267.6,203.7,267.1,203.8,266.3z"/>
			<path class="st13" d="M64.1,266.3c-4,0-7.9,0-11.7,0c-0.9,2.2,0,5.1,1.9,5.7c1.4,0.5,2.8,0.4,4.3-0.1c0.8-0.2,1.6-0.7,2.4-1
				c0.2-0.1,0.5-0.1,0.9-0.2c0.1,0.3,0.2,0.6,0.3,0.8c0.7,1.4,0.5,1.7-0.7,2.4c-2.4,1.2-5,1.6-7.5,1.1c-2.5-0.5-4.2-2.1-5-4.6
				c-0.4-1.3-0.8-2.6-0.5-3.9c0.6-2.8,1.2-5.8,3.3-8c1.9-2,4.3-3,7.1-2.7c1.5,0.1,2.8,0.5,4,1.6c0.9,0.8,1.3,1.8,1.6,2.8
				C64.8,262.2,64.7,264.2,64.1,266.3z M53,263.3c2.7,0,5.3,0,7.9,0c0.1-1.1,0.4-2.2-0.4-3.3c-1.3-1.7-3.1-1.9-5-0.7
				C54.3,260.1,53.1,261.3,53,263.3z"/>
			<path class="st13" d="M-4.3,266.3c-3.9,0-7.8,0-11.7,0c-0.5,1.6,0.1,3,0.5,4.2c0.3,0.9,1.1,1.6,2.2,1.6c2,0.2,3.9,0.1,5.7-1
				c0.3-0.2,0.7-0.3,1.1-0.5c0.3,0.5,0.7,1,0.9,1.4c0.2,0.5,0.2,1-0.4,1.3c-2.5,1.6-5.2,2.1-8.1,1.8c-2.4-0.2-4.6-2.4-5.3-4.8
				c-0.5-1.8-0.5-3.5-0.1-5.4c0.3-1.4,0.5-2.9,1.3-4.2c2.5-4.3,6.2-5.7,10.6-4.7c1.9,0.4,3.1,2,3.6,3.9
				C-3.5,261.3-3.7,264.8-4.3,266.3z M-15.1,263.3c2.4,0,4.6,0,6.8,0c0.3,0,0.5-0.1,1-0.1c0-0.8,0.1-1.7,0-2.5
				c-0.1-0.8-0.7-1.4-1.4-1.8c-1.7-0.7-1.7-0.6-3.3,0C-13.7,259.6-15,261.5-15.1,263.3z"/>
			<path class="st13" d="M107.8,266.4c0.1,1.3,0.1,2.5,0.2,3.6c0.2,1.2,1.5,2.2,2.5,2.3c1.9,0.2,3.8,0.1,5.6-1
				c0.4-0.2,0.8-0.4,1.3-0.7c0.3,0.9,1.3,1.6,0.7,2.7c-2.4,1.6-5.1,2.2-8,1.9c-2.8-0.2-5.6-3.1-5.9-5.6c-0.2-1.8-0.1-3.5,0.2-5.3
				c0.3-1.9,1-3.7,2.4-5.2c1.1-1.2,2.3-2.4,4-2.9c2.4-0.7,4.6-0.8,6.8,0.5c1.4,0.8,2.1,2.2,2.3,3.8c0.2,1.8,0.1,3.6,0.1,5.6
				C115.9,266.4,112,266.2,107.8,266.4z M108.5,263.3c2.8,0,5.3,0,7.8,0c0.8-2.1,0.1-3.4-1.7-4.4c-1.1-0.5-1.9-0.2-2.8,0.1
				C110.1,259.8,109,261.2,108.5,263.3z"/>
			<path class="st13" d="M154.9,266.3c-4,0-7.9,0-11.8,0c-0.2,1.7-0.4,3.3,0.6,4.6c0.5,0.7,1.1,1.2,2,1.3c1.9,0.2,3.8,0,5.6-1
				c0.4-0.2,0.7-0.4,1-0.5c1,1.4,1.1,1.4,0.9,2.5c-2.5,1.8-5.4,2.3-8.3,1.9c-2.8-0.4-5-2.8-5.4-5.6c-0.4-2.2,0-4.3,0.5-6.5
				c0.8-3.3,2.8-5.6,5.9-6.7c2.7-1,5.4-1,7.7,1.1c0.8,0.7,1.2,1.5,1.4,2.4c0.3,1.3,0.5,2.7,0.2,4C155,264.6,155,265.3,154.9,266.3z
				 M149.8,259c-0.1-0.8-0.8-0.8-1.4-0.8s-1.1,0-1.3,0.8c-1.9,0.5-3.4,2.4-3.4,4.3c2.6,0,5.1,0.1,7.7,0c0.5-1.2,0.2-2.3-0.2-3.3
				C151.1,259.5,150.6,258.9,149.8,259z"/>
			<path class="st13" d="M241.2,270.7c0.2,0.2,0.5,0.5,0.7,0.8c0.7,1.3,0.4,2-0.9,2.6c-2.1,1-4.2,1.3-6.5,1.2
				c-3.4-0.1-6.4-3.5-6.4-6.6c0-2.1,0.1-4.2,0.7-6.1c0.3-1,1-1.9,1.6-2.8c2.4-3.7,6.2-4.5,9.9-3.7c1.8,0.4,2.8,1.8,3.4,3.4
				c0.2,0.7,0.6,1.4,0.7,2.2c0.1,0.7-0.1,1.5-0.2,2.2c-0.1,0.7-0.3,1.5-0.5,2.4c-3.9,0-7.7,0-11.7,0c-0.1,1.4-0.3,2.8,0.4,4.2
				c0.5,1.1,1.4,1.6,2.6,1.8c1.7,0.2,3.4,0,4.9-0.7C240.1,271.2,240.6,270.9,241.2,270.7z M239,259c-0.3-1-1.2-0.8-1.9-0.8
				c-0.6,0-1.2,0-1.3,0.8c-1.8,0.9-2.9,2.2-3.5,4.3c3-0.1,5.7,0.2,8.3-0.2C240.9,261.3,240.5,260,239,259z"/>
			<path class="st15" d="M20.9,275.2c-1.6,0.2-3.1-0.4-4.5-1.5c-1.5-1.2-2.3-2.9-2.5-4.8c-0.2-2.5,0.1-5,1.1-7.3
				c2.4-5.2,7.4-7,12.3-5.1c1,0.4,1.7,1.1,2.3,2.1c1.4,2.2,1.8,4.5,1.3,7.1c-0.4,1.9-0.9,3.6-1.9,5.1
				C27.3,273.8,24.6,275.3,20.9,275.2z M23.5,258.9c-2.4-0.4-3.7,1.1-4.6,2.8c-1.1,2.1-1.7,4.4-1.4,6.8c0.2,1.5,0.7,2.9,2.2,3.6
				c1.8,0.8,4.4,0.1,5.6-1.6c1-1.6,2.1-3.1,2.1-5.1c0-0.4,0.2-0.7,0.2-1.1c0.2-1.3-0.1-2.6-0.7-3.7C26.1,259.3,25,258.6,23.5,258.9z
				"/>
			<path class="st15" d="M257.8,261.8c-0.2-0.7-0.3-1.2-0.5-1.6c-0.5-0.7-1.1-1.3-2.1-1.3c-1.4,0-2.7-0.1-3.8,1.1
				c-1.1,1.2-1,2.6,0.4,3.2c1.3,0.5,2.8,0.7,4.1,1.2c1.1,0.4,2.2,0.8,3.2,1.8c2,2,1.4,3.6,0.5,5.5c-0.8,1.7-2.4,2.5-4,3.1
				c-1.7,0.6-3.4,0.7-5.1,0.4c-2.6-0.4-4.7-1.9-5.1-4.8c-0.2-1.3,0.2-1.6,1.4-1.7c0.3,0,0.6,0,0.8,0c1,0.1,1.2,0.1,1.3,1.1
				c0.1,1.4,1,2,2.1,2.3c1.4,0.4,2.9,0.3,4.2-0.5c0.7-0.4,1.2-1,1.3-1.9c0.1-1.4-0.4-1.9-1.8-2.3c-1.4-0.4-2.9-0.6-4.2-1.2
				c-1.2-0.5-2.5-1.1-3.3-2.4c-0.8-1.6-0.5-3.1,0.4-4.5c1.9-3.1,4.8-3.6,8.1-3.4c1.9,0.1,3.4,0.7,4.5,2.4c0.5,0.8,1,1.6,0.8,2.7
				c-0.1,0.6-0.3,0.9-0.9,0.9C259.5,261.8,258.7,261.8,257.8,261.8z"/>
			<path class="st13" d="M129.2,259c-1,0.3-1.8,0.7-2.3,1.8c-0.4,1-0.1,2.2,1,2.6c1.3,0.4,2.7,0.8,4,1.1c1.4,0.3,2.7,1,3.7,2
				c0.4,0.4,0.7,1,0.8,1.6c0.7,3.2-2,6-4.5,6.7c-1.7,0.5-3.3,0.6-5,0.4c-2.5-0.3-4.4-1.4-5.2-4c-0.1-0.2-0.2-0.5-0.2-0.8
				c-0.1-1.4,0.1-1.6,1.5-1.6c0.4,0,0.7,0,1,0c0.7-0.1,1,0.3,1.1,0.8c0.1,1.1,0.6,2,1.8,2.4c1.2,0.4,2.5,0.4,3.7,0
				c0.4-0.1,0.7-0.4,1-0.5c1-0.5,1.3-1.3,1.2-2.4c-0.1-0.8-0.7-1.4-1.7-1.7c-1.3-0.4-2.7-0.8-4-1.1c-1.1-0.3-2.1-1-2.9-1.7
				c-1.4-1.1-1.4-2.8-0.8-4.3c1.1-2.7,3.1-4,6-4.3c1.8-0.2,3.5-0.2,5.2,0.6c1.5,0.7,2.4,1.9,2.8,3.6c0.2,1-0.2,1.6-1.3,1.7
				c-0.6,0-1.3,0-1.9,0c-0.7-1-0.7-2.4-2.1-2.8c-0.6-0.8-2.1-1.1-2.8-0.5C129.2,258.5,129.2,258.8,129.2,259z"/>
			<path class="st15" d="M223.3,262.8c-0.1-0.6-0.2-1-0.2-1.5c-0.1-1.3-1.3-2.4-2.6-2.4c-2.3-0.1-3.5,0.2-5,2.7
				c-1.4,2.5-1.6,5.1-1.3,7.9c0.2,1.3,1.4,2.5,2.8,2.7c2.1,0.3,4.3-0.6,5.3-3.5c1,0,2.1,0,3.1,0c0.1,1.2-0.3,2.2-0.9,3
				c-1.6,2.1-3.6,3.3-6.3,3.4c-1.9,0.1-3.7-0.1-5.2-1.4c-2.2-1.9-2.8-4.4-2.5-7.2c0.1-1.3,0.4-2.6,0.8-3.8c1-3.1,2.8-5.6,6-6.6
				c2.2-0.7,4.5-0.8,6.6,0.4c1.7,0.9,3,3.3,2.7,5.3c-0.1,0.7-0.4,1-1,0.9C224.8,262.8,224.2,262.8,223.3,262.8z"/>
			<path class="st16" d="M45.8,256.1c1.3,0,2.4,0,3.7,0c-0.2,0.7-0.4,1.2-0.7,1.7c-1.1,2.2-2.4,4.4-3.6,6.6c-1.2,2.3-2.4,4.6-3.6,7
				c-0.5,0.9-0.9,1.9-1.5,2.7c-0.2,0.4-0.7,0.7-1.1,0.7c-0.7,0.1-1.4-0.1-2.1-0.1c-0.5-2.4-0.9-4.6-1.4-6.9
				c-0.4-1.9-0.6-3.9-1.3-5.7c-0.5-1.2-0.5-2.5-1-3.7c-0.2-0.7-0.2-1.4-0.3-2.2c1.3,0,2.4,0,3.5,0c1.1,4.3,1.7,8.8,2.7,13
				c0.1,0,0.2,0,0.3,0C41.6,264.8,43.7,260.4,45.8,256.1z"/>
			<path class="st16" d="M80.9,259c-0.3,2.1-0.5,4-0.8,5.9c-0.2,1.7-0.4,3.3-0.7,5c-0.1,0.4-0.1,0.8,0,1.1c0.1,0.7,0.5,1.1,1.2,1.1
				c0.5,0.1,1.3,0,1.4,0.3c0.3,0.5,0.2,1.3,0.4,1.9c-1.8,1.1-3.4,1.2-5.1,0.4c-0.7-0.4-1.2-0.8-1.4-1.6c-0.4-1.2-0.4-2.4-0.1-3.7
				c0.4-1.9,0.5-3.8,0.7-5.7c0.1-0.7,0.4-1.5,0.4-2.2c0.1-0.8,0.1-1.5,0.2-2.4c-0.9-0.1-1.8-0.1-2.7-0.2c0.1-1,0.2-1.8,0.4-2.8
				c1-0.1,1.9-0.1,2.8-0.2c0.2-1.4,0.5-2.7,0.8-4.1c1.1,0,2.2,0,3.6,0c-0.2,1.3-0.3,2.7-0.5,4.1c1.1,0.1,2.2,0.1,3.3,0.2
				c0.5,1.1-0.4,1.9-0.6,2.9C83.2,259,82.1,259,80.9,259z"/>
			<path class="st15" d="M187.5,274.6c-1.1,0.5-2.2,0.4-3.6,0.1c0.1-0.9,0.1-1.8,0.2-2.6c0.3-2.5,0.5-5,1.1-7.4
				c0.5-2.1,0.4-4.3,1.1-6.3c0.5-1.3,0.5-2.7,0.7-4.1c0.2-1.9,0.5-3.9,0.8-5.8c0.8-0.8,1.8-0.6,2.7-0.6c0.6,0,0.8,0.4,0.8,1
				c0,0.4,0,0.7-0.1,1c-0.4,2.3-0.7,4.5-1.1,6.8c0,0.1-0.1,0.3-0.1,0.4c-0.4,2.6-0.8,5.2-1.2,7.8c-0.2,1.9-0.4,3.7-0.7,5.6
				C188,271.7,187.8,273.1,187.5,274.6z"/>
			<path class="st13" d="M7.8,261.9c0-0.4,0.1-0.7,0.1-1.1c0.8-0.8,0.5-1.9,0.5-3c0-0.4,0.1-0.7,0.1-1.1c0.2-0.2,0.5-0.4,0.5-0.7
				c0.1-0.6,0.1-1.3,0.1-1.9c0.2-1.9,0.4-3.8,0.7-5.7c0.7-0.5,1.6-0.6,2.5-0.5c0.9,0.1,1.2,0.3,1.1,1.3c-0.1,1-0.3,1.9-0.4,2.8
				c-0.1,0.5-0.1,1-0.2,1.6c-0.6,0.2-0.7,0.7-0.8,1.3c0,0.7,0,1.3,0,2c0,0.4-0.1,0.7-0.1,1.1c-0.2,0.3-0.5,0.6-0.5,1
				c-0.1,0.7,0,1.3,0,2c0,0.4-0.1,0.7-0.1,1.1c-0.8,0.8-0.6,1.8-0.5,2.7c0,0.4-0.1,0.7-0.1,1.1c-0.8,0.8-0.5,1.9-0.5,3
				c0,0.5-0.1,0.9-0.1,1.4c-0.9,0.7-0.5,1.8-0.5,2.7c0,0.5-0.1,0.9-0.1,1.4c-0.4,0.2-0.8,0.5-1.2,0.5c-0.7,0.1-1.5,0.1-2.2,0.1l0,0
				c0-0.2-0.1-0.4-0.1-0.6c0-0.5,0.1-0.9,0.1-1.4c0.9-0.7,0.5-1.8,0.5-2.7c0-0.5,0.1-0.9,0.1-1.4c0.7-0.7,0.6-1.5,0.5-2.4
				c0-0.5,0.1-0.9,0.1-1.4c0.2-0.3,0.5-0.6,0.5-1C7.9,263.2,7.8,262.6,7.8,261.9z"/>
			<path class="st17" d="M334.3,206.6c0-1,0-2,0-2.9c1.5-0.4,1.5-0.3,1.9,0.7c0.4,1,0.8,2,1.3,3.3c0.7-1.6,1.3-2.8,1.9-4.1
				c1.4-0.2,1.4-0.1,1.5,1.1c0.1,1.3,0.1,2.5,0.1,3.7c0,0.5-0.1,1-0.1,1.4c-0.7,0.3-1,0.1-1-0.5c-0.1-0.8-0.2-1.7-0.4-2.8
				c-0.4,1-0.6,1.7-0.9,2.4c-0.1,0.3-0.4,0.7-0.7,0.9c-0.5,0.4-1,0.2-1.2-0.4c-0.2-0.7-0.5-1.5-0.8-2.4c-0.9,0.9,0.1,2.4-1.2,2.9
				c-1-0.7-1-0.8-0.4-1.7c0.1,0.3-0.1,0.8,0.6,1.2c0-0.9,0.1-1.6,0-2.4C334.8,206.9,334.5,206.8,334.3,206.6z"/>
			<path class="st18" d="M61.4,210.1c0-1.7,0-3.3,0-5.1c-8.4,0-16.7,0-25.1,0c0,1.2-0.1,2.4-0.1,3.6c0,0.4,0.1,0.9-0.5,1
				c-0.1-1.8-0.2-3.6,0.5-5.4c8.6,0,17.2,0,25.8,0c0.1,1.9,0.1,3.9-0.2,5.7C61.7,209.9,61.6,210,61.4,210.1z"/>
			<path class="st17" d="M331.9,204.9c0,1.7,0,3.3,0,4.8c-1.2,0.2-1.7-0.1-1.8-1c-0.1-0.8,0-1.6,0-2.3c0-0.5-0.1-1-0.1-1.4
				c-1.6-0.4-1.6-0.4-1.6-1.5c1.5-0.2,3-0.1,4.6-0.1c0.2,0,0.5,0.3,0.5,0.5c0,0.2-0.2,0.5-0.4,0.7
				C332.8,204.8,332.5,204.8,331.9,204.9z"/>
			<path class="st17" d="M295.1,206.6c-0.7-0.2-1.5-0.3-2.1-0.7c-1.5-0.8-3.1-1.1-4.8-1.1c-4.9,0.1-9.8,0-14.7,0
				c0-0.2,0.1-0.5,0.1-0.7c0.2-0.1,0.3-0.1,0.4-0.1c4.8,0,9.7-0.2,14.6,0.1C290.9,204.2,293.3,204.9,295.1,206.6z"/>
			<path class="st19" d="M158.7,235c-0.1-0.7-0.2-1.4-0.4-2.3c-0.4,0-1-0.1-1.4-0.1c-2.8,0-5.6,0-8.3,0c-0.4,0-0.8,0-1.1-0.1
				c-0.4-0.1-0.6-0.4-0.2-0.7c0.5,0.1,1,0.2,1.6,0.2c2.9,0,5.7,0,8.6,0c0.6,0,1.1,0.2,1.9,0.4C158.9,233.3,159.5,234.3,158.7,235z"
				/>
			<path class="st19" d="M138.8,238.5c5.9,0,11.7,0,17.5-0.1c0.5,0,1,0,1.5,0c0.3-0.4,0.6-0.8,0.8-1.1c0.1,1.4-0.1,1.6-1.4,1.6
				c-5.8,0-11.5,0-17.3,0C139.5,238.9,139,239,138.8,238.5z"/>
			<path class="st19" d="M4.7,205.1c-0.2-0.1-0.5-0.3-0.8-0.3c-2.4,0-4.7,0-7.2,0c-0.1,1.4-0.2,2.7-0.4,4c-0.1,0.4,0.2,1-0.5,1.2
				c-0.1-2-0.2-4,0.5-6.1c0.8,0,1.7,0,2.6,0c1.5,0,3.1,0,4.6,0C4.3,204,4.7,204.3,4.7,205.1z"/>
			<path class="st19" d="M148.9,204.8c-2.4,0-4.9,0-7.4,0c-0.1,1.1-0.2,2.1-0.4,3c-0.1,0.4,0.1,0.9-0.5,1.1c0-1.3,0-2.6,0-3.9
				c0.1-0.9,0.2-1,1.1-1.1c2.4,0,4.7,0,7.1,0C148.9,204.3,148.9,204.6,148.9,204.8z"/>
			<path class="st17" d="M260.1,204.9c-2.8,0-5.7,0-8.7,0c-0.2,0.5-0.5,1.1-0.8,1.6c-0.2,0.4-0.5,0.7-0.7,1c0.4-1.1,0.8-2.3,1.2-3.5
				c2.8,0,5.6,0,8.3,0C259.9,204,260.2,204.3,260.1,204.9z"/>
			<path class="st17" d="M211.7,205.4c-0.7-0.5-1.5-0.6-2.4-0.6c-2.8,0.1-5.6,0-8.3,0c0-0.2,0.1-0.5,0.1-0.7c3.5,0,7,0,10.6,0
				C211.7,204.6,211.7,205,211.7,205.4z"/>
			<path class="st18" d="M113.3,205.1c-0.7-0.1-1.4-0.3-2.1-0.3c-2.3,0-4.6,0-6.8,0c0-0.2,0.1-0.5,0.1-0.8c2.9,0,5.7,0,8.7,0
				C113.1,204.5,113.2,204.8,113.3,205.1z"/>
			<path class="st20" d="M-20.6,256.6c0.2-0.5,0.4-0.9,0.5-1.4c0.6-1.6,1.1-3.3,1.8-5.1c-1.2,0-2.3-0.1-3.4-0.1
				c0.1-0.1,0.1-0.4,0.2-0.4c1.2-0.2,2.4-0.2,3.9,0.1c-0.4,0.9-0.6,1.6-0.9,2.4c-0.4,1.3-0.8,2.5-1.3,3.7
				C-20,256.1-20.4,256.4-20.6,256.6z"/>
			<path class="st19" d="M-5.5,229.5c0.1,0.5,0.2,1.1,0.2,1.7c-0.1,1.4-0.1,2.8-0.3,4.3c0,0.2-0.4,0.5-0.5,0.7
				c0.1-2.1,0.1-4.1,0.2-6.2C-5.9,229.8-5.6,229.6-5.5,229.5z"/>
			<path class="st19" d="M139.4,228.3c0.1,1.1,0.2,2.2,0.2,3.3c0,0.8-0.1,1.7-0.3,2.5c-0.1,0.2-0.4,0.4-0.5,0.5
				c0.1-1.9,0.1-3.9,0.2-5.9C139,228.7,139.2,228.5,139.4,228.3z"/>
			<path class="st19" d="M9,213.3c-0.2-0.1-0.6-0.2-0.7-0.4c-1.2-2.4-2.4-4.8-3.6-7.2c-0.1-0.2,0-0.4,0-0.5c0.7,0.2,0.8,0.9,1,1.4
				C6.8,208.8,7.9,211,9,213.3z"/>
			<path class="st18" d="M52.5,211c-0.2-0.8,0.3-1,1-1c2.7,0,5.3,0,7.9,0c0,0.7-0.5,0.5-1,0.5c-2.1,0-4.2,0-6.3,0
				C53.6,210.6,53,210.9,52.5,211z"/>
			<path class="st19" d="M140.5,210.7c0.1,1.3,0.2,2.5,0.2,3.8c0,0.8-0.1,1.5-0.2,2.2c-0.1,0.2-0.3,0.4-0.5,0.6
				c0.1-1.9,0.1-3.7,0.1-5.6C140.2,211.3,140.4,211,140.5,210.7z"/>
			<path class="st19" d="M-4.3,212.1c0.1,1.1,0.2,2.2,0.2,3.4c0,0.8-0.1,1.7-0.2,2.5c0,0.2-0.3,0.3-0.4,0.5c0.1-1.8,0.1-3.7,0.1-5.5
				C-4.7,212.7-4.4,212.4-4.3,212.1z"/>
			<path class="st19" d="M-4.9,220.8c0.1,0.7,0.2,1.5,0.2,2.2c-0.1,1.2-0.2,2.5-0.3,3.7c0,0.2-0.3,0.3-0.4,0.5
				c0.1-1.8,0.1-3.7,0.1-5.5C-5.2,221.4-5,221.1-4.9,220.8z"/>
			<path class="st19" d="M139.9,219.6c0.1,1.4,0.1,2.7,0.1,4.1c0,0.5-0.1,1-0.2,1.4c-0.1,0.2-0.3,0.4-0.4,0.6
				c0.1-1.8,0.1-3.6,0.1-5.4C139.6,220.1,139.8,219.9,139.9,219.6z"/>
			<path class="st17" d="M273.4,205.4c0,1.7,0,3.4,0.1,5.1c0,0.5-0.2,0.8-0.7,0.8c-0.2-1.8-0.1-3.6,0.3-5.4
				C273,205.7,273.3,205.5,273.4,205.4z"/>
			<path class="st19" d="M148.3,212.7c0-2,0-4,0-6c0-0.2,0.4-0.5,0.5-0.7c-0.1,1.6-0.1,3.2-0.2,4.8
				C148.7,211.5,149,212.2,148.3,212.7z"/>
			<path class="st19" d="M147.8,221.1c0-1.9-0.1-3.9,0-5.8c0-0.3,0.4-0.6,0.5-1c-0.1,2.1-0.1,4.2-0.2,6.3
				C148.1,220.8,147.9,220.9,147.8,221.1z"/>
			<path class="st19" d="M147.2,229.5c0-1.8-0.1-3.6,0-5.4c0-0.2,0.4-0.5,0.5-0.7c-0.1,1.9-0.1,3.9-0.2,5.9
				C147.5,229.3,147.3,229.5,147.2,229.5z"/>
			<path class="st17" d="M272.1,222.2c0.1,0.5,0.2,1.1,0.2,1.6c-0.1,1.3-0.1,2.5-0.3,3.8c-0.1,0.3-0.3,0.6-0.4,0.9
				C271.4,226.5,271.4,224.3,272.1,222.2z"/>
			<path class="st17" d="M272.6,213.8c0.1,0.7,0.2,1.3,0.2,1.9c0,1.1-0.1,2.3-0.3,3.4c-0.1,0.3-0.3,0.5-0.4,0.8
				C272,217.9,272,215.8,272.6,213.8z"/>
			<path class="st17" d="M201,206.2c0,1.2,0,2.5,0.1,3.7c0,0.5-0.2,0.8-0.7,0.8c0-1.1,0-2.2-0.1-3.4
				C200.3,206.8,200.5,206.4,201,206.2z"/>
			<path class="st17" d="M271.5,231.2c0.1,0.4,0.2,0.7,0.2,1.1c-0.1,1.4-0.2,2.7-0.2,4.1c0,0.4,0,0.8-0.5,0.9
				C270.8,235.3,270.9,233.2,271.5,231.2z"/>
			<path class="st17" d="M199.6,223.4c0,1.5-0.1,3.1-0.1,4.6c0,0.1-0.2,0.2-0.4,0.4c0-1.2-0.1-2.5,0-3.7
				C199.1,224.2,199.4,223.8,199.6,223.4z"/>
			<path class="st17" d="M200.2,215c0.1,1.5,0,3-0.1,4.4c0,0.1-0.2,0.1-0.4,0.2c0-1.1-0.1-2.4,0-3.5
				C199.7,215.7,200,215.4,200.2,215z"/>
			<path class="st17" d="M199,232.4c0.1,1.4,0.1,2.8-0.1,4.2c0,0.1-0.2,0.1-0.4,0.2c0-1.2-0.1-2.4,0-3.6
				C198.6,232.9,198.9,232.6,199,232.4z"/>
			<path class="st20" d="M11.9,256.8c0-0.7-0.1-1.3,0-2c0-0.5,0.1-1.1,0.8-1.3c0,0.8-0.1,1.5-0.1,2.3
				C12.6,256.3,12.3,256.6,11.9,256.8z"/>
			<path class="st21" d="M-115.8,235.9c0.9,0.6,1.9,1.1,2.8,1.8c0.4,0.3,1.1-0.1,1.2,0.7C-113.4,238-114.9,237.4-115.8,235.9z"/>
			<path class="st20" d="M6.1,274.6c0.7,0,1.5,0.1,2.2-0.1c0.4-0.1,0.8-0.4,1.2-0.5c0.3,0.5-0.1,0.9-0.5,1c-0.9,0.1-1.8,0-2.7,0
				C6.2,275,6.2,274.7,6.1,274.6z"/>
			<path class="st20" d="M129.2,259c0.1-0.2,0-0.4,0.1-0.5c0.7-0.5,2.2-0.2,2.8,0.5C131.1,259,130.2,259,129.2,259z"/>
			<path class="st20" d="M-31.4,271.4c0.6,0.1,0.7,0.5,0.7,1c0,0.5-0.1,1.1-0.1,1.7c-0.2-0.2-0.6-0.5-0.7-0.8
				C-31.5,272.8-31.4,272.1-31.4,271.4z"/>
			<path class="st20" d="M11.4,260.8c0-0.7-0.1-1.3,0-2c0.1-0.3,0.4-0.6,0.5-1C12.1,258.9,12,259.9,11.4,260.8z"/>
			<path class="st20" d="M10.2,268.6c-0.1-1-0.4-2.1,0.5-3C10.9,266.7,11,267.7,10.2,268.6z"/>
			<path class="st21" d="M245,220.2c-0.2,0.8-0.4,1.7-0.7,2.5c-0.1,0.1-0.4,0.2-0.6,0.2C243.5,221.6,244.2,220.9,245,220.2z"/>
			<path class="st20" d="M7.8,261.9c0,0.7,0.1,1.3,0,2c-0.1,0.3-0.4,0.6-0.5,1C7.1,263.8,7.2,262.8,7.8,261.9z"/>
			<path class="st20" d="M8.4,257.8c0.1,1,0.4,2.1-0.5,3C7.6,259.7,7.7,258.7,8.4,257.8z"/>
			<path class="st20" d="M93.6,259c0.8-1.1,1.9-1.1,2.7,0C95.3,259,94.4,259,93.6,259z"/>
			<path class="st20" d="M9.6,272.7c0-0.9-0.4-1.9,0.5-2.7C10.4,271,10.2,271.9,9.6,272.7z"/>
			<path class="st20" d="M6.6,270c0,0.9,0.4,1.9-0.5,2.7C5.9,271.7,6.1,270.8,6.6,270z"/>
			<path class="st20" d="M9,254.2c0,0.6,0.1,1.3-0.1,1.9c-0.1,0.2-0.4,0.5-0.5,0.7C8.3,255.8,8.1,254.8,9,254.2z"/>
			<path class="st20" d="M-22.9,253.4c-0.2,0.8-0.4,1.6-0.6,2.4c-0.1,0.2-0.4,0.2-0.7,0.4C-24,255.2-23.5,254-22.9,253.4z"/>
			<path class="st20" d="M10.8,264.6c-0.1-1-0.2-1.9,0.5-2.7C11.5,262.9,11.4,263.8,10.8,264.6z"/>
			<path class="st21" d="M248,212.4c-0.2,0.9-0.4,1.9-1.2,2.5C246.8,213.9,247.3,212.9,248,212.4z"/>
			<path class="st17" d="M297.4,208.9c-0.1,0-0.4,0-0.4-0.1c-0.6-0.7-1.2-1.4-1.8-2.2C296.3,207,296.9,207.9,297.4,208.9z"/>
			<path class="st21" d="M249.1,209.5c-0.1,1-0.3,1.9-1.1,2.6C247.9,211,248.5,210.3,249.1,209.5z"/>
			<path class="st9" d="M334.3,206.6c0.2,0.2,0.5,0.3,0.5,0.5c0.1,0.7,0,1.4,0,2.4c-0.7-0.4-0.4-0.8-0.6-1.2
				C334.3,207.7,334.3,207.2,334.3,206.6z"/>
			<path class="st20" d="M7.2,266.2c0.1,0.8,0.2,1.7-0.5,2.4C6.5,267.7,6.5,266.9,7.2,266.2z"/>
			<path class="st17" d="M261.8,212.1c-0.7-0.5-1-1.2-0.5-2.1C261.8,210.7,261.9,211.3,261.8,212.1z"/>
			<path class="st20" d="M-66.6,222.8c-0.4,0-1,0.2-1.1-0.5c-0.1-0.6,0.3-0.7,0.8-0.7C-66.8,222-66.8,222.4-66.6,222.8z"/>
			<path class="st21" d="M-118.3,232.9c0.2,0.1,0.5,0.2,0.7,0.4c0.2,0.4,0.4,0.7,0.5,1.1C-117.9,234.2-118.5,233.8-118.3,232.9z"/>
			<path class="st17" d="M261.2,209.5c-0.8-0.6-0.8-0.8-0.5-1.8C261.1,208.3,261.4,208.8,261.2,209.5z"/>
			<path class="st17" d="M260.6,207.2c-0.6-0.3-1-0.8-0.5-1.4C260.9,206,260.7,206.6,260.6,207.2z"/>
			<path class="st20" d="M-66.9,221.6c0.6-0.4,1.1-0.8,1.8-1.1C-65.6,221.2-66,221.7-66.9,221.6z"/>
			<path class="st17" d="M262.5,214.1c-0.7-0.2-0.8-0.8-0.6-1.4C262.7,212.9,262.4,213.6,262.5,214.1z"/>
			<path class="st19" d="M138.7,236.6c0,0.6,0.1,1.1,0.1,1.8C138.2,237.9,138.2,237.5,138.7,236.6z"/>
			<path class="st18" d="M103.2,207.8c0.4,0.7,0.1,1-0.6,1.1C102.5,208.4,102.6,207.9,103.2,207.8z"/>
			<path class="st21" d="M245.6,218.4c0,0.5,0.2,1.1-0.5,1.2C244.8,219,245.1,218.6,245.6,218.4z"/>
			<path class="st21" d="M246.8,215.5c0,0.5,0.2,1.1-0.5,1.2C246,216.1,246.2,215.7,246.8,215.5z"/>
			<path class="st20" d="M-22.3,251.7c0,0.5,0.2,1.1-0.5,1.2C-23,252.3-22.9,252-22.3,251.7z"/>
			<path class="st20" d="M-21.7,250c0.1,0.5,0,1-0.5,1.1C-22.5,250.6-22.1,250.3-21.7,250z"/>
			<path class="st18" d="M104.3,204.9c0,0.5,0.1,1-0.5,1.1C103.7,205.5,103.7,205.1,104.3,204.9z"/>
			<path class="st19" d="M10.1,215.6c-0.7-0.1-0.6-0.5-0.5-1C10,214.8,10.4,215,10.1,215.6z"/>
			<path class="st20" d="M-21.2,258.1c0-0.5-0.1-1,0.5-1.1C-20.4,257.5-20.8,257.8-21.2,258.1z"/>
			<path class="st18" d="M103.7,206.3c0.1,0.4,0.1,0.8-0.5,0.9C103.1,206.8,103.3,206.4,103.7,206.3z"/>
			<path class="st19" d="M9.6,214.4C9,214.4,8.9,214,9,213.5C9.2,213.8,9.4,214.1,9.6,214.4z"/>
			<path class="st20" d="M-65.2,220.5c0.4-0.3,0.7-0.6,1.1-0.9C-64.3,220-64.6,220.5-65.2,220.5z"/>
			<path class="st19" d="M10.7,216.7c-0.4,0-0.6-0.2-0.5-0.7C10.4,216.3,10.5,216.5,10.7,216.7z"/>
			<path class="st21" d="M246.2,217.2c0.1,0.4-0.1,0.7-0.5,0.7C245.9,217.7,246,217.4,246.2,217.2z"/>
			<path class="st19" d="M-6.1,237.9c0,0.2,0.1,0.4,0.1,0.6C-6.6,238.3-6.4,238-6.1,237.9z"/>
			<path class="st20" d="M6.1,274c0,0.2,0.1,0.4,0.1,0.6C5.5,274.5,5.6,274.3,6.1,274z"/>
			<path class="st21" d="M-116.4,235.3c0.2,0.2,0.4,0.3,0.5,0.5C-116,235.6-116.2,235.5-116.4,235.3z"/>
			<path class="st21" d="M-117,234.7c0.2,0.2,0.4,0.3,0.5,0.5C-116.6,235.1-116.8,234.9-117,234.7z"/>
			<path class="st22" d="M107.8,215.8c0.2,0.4,0.5,0.8,0.7,1.2c0.4,1.7,0.8,3.3,1.1,5c0.2,1.1,0.5,2.3,0.7,3.6c-2,0-3.9,0-6,0
				c0.1-0.4,0-0.9,0.2-1.3c0.5-1.4,1-3,1.6-4.4C106.6,218.6,107.2,217.4,107.8,215.8z"/>
			<path class="st23" d="M255,215.9c0.5,2.2,0.9,4.5,1.4,6.7c0.2,1,0.8,1.9,0.4,3c-1.9,0-3.8,0-5.9,0c0-0.4-0.1-0.7,0.1-1
				c1.6-2.8,1.9-6.1,3.6-8.9C254.8,215.8,254.9,215.8,255,215.9z"/>
			<path class="st24" d="M175.6,259c1.1,0.1,1.8,0.8,2.1,1.7c0.6,1.6,1,3.1,0.5,4.9c-0.4,1.4-0.7,3-1.4,4.3
				c-1.2,2.4-4.9,3.3-6.8,1.9c-0.8-0.5-1.3-1.2-1.1-2.2c0.1-1,0.3-1.9,0.4-2.8c0.1-0.5,0.1-1.1,0.2-1.7c0.2-1.2,0.4-2.5,0.6-3.7
				c0-0.2,0.1-0.4,0.2-0.5c0.8-0.8,1.6-1.6,2.9-1.8C174,259,174.8,259,175.6,259z"/>
			<path class="st20" d="M175.6,259c-0.8,0-1.6,0-2.4,0C174.1,257.9,175.1,257.8,175.6,259z"/>
			<path class="st25" d="M203.8,266.3c-0.2,0.7-0.4,1.3-0.4,1.8c0,1.2-0.6,2-1.5,2.7c-1.2,0.9-2.6,1.4-4.1,1.5
				c-1.1,0.1-2.1-0.2-2.6-1.4c-0.4-1,0.1-1.9,0.7-2.8c0.8-1.1,2-1.5,3.1-1.7C200.6,266.1,202.1,266.3,203.8,266.3z"/>
			<path class="st25" d="M53,263.3c0.1-1.9,1.2-3.1,2.5-4c1.8-1.1,3.7-1,5,0.7c0.7,1,0.4,2.1,0.4,3.3
				C58.2,263.3,55.7,263.3,53,263.3z"/>
			<path class="st25" d="M-15.1,263.3c0.1-1.8,1.4-3.7,2.9-4.3c1.7-0.6,1.7-0.7,3.3,0c0.7,0.3,1.3,0.9,1.4,1.8c0.1,0.8,0,1.6,0,2.5
				c-0.4,0.1-0.7,0.1-1,0.1C-10.5,263.3-12.7,263.3-15.1,263.3z"/>
			<path class="st25" d="M108.5,263.3c0.4-2.1,1.6-3.4,3.3-4.2c0.9-0.4,1.8-0.7,2.8-0.1c1.8,0.9,2.5,2.4,1.7,4.4
				C113.8,263.3,111.3,263.3,108.5,263.3z"/>
			<path class="st25" d="M149.8,259c0.8-0.1,1.3,0.5,1.5,1.1c0.4,1,0.7,2,0.2,3.3c-2.5,0.1-5.1,0.1-7.7,0c0-1.9,1.5-3.8,3.4-4.3
				C148,259,148.9,259,149.8,259z"/>
			<path class="st20" d="M149.8,259c-0.9,0-1.8,0-2.7,0c0.1-0.8,0.7-0.8,1.3-0.8S149.7,258.1,149.8,259z"/>
			<path class="st25" d="M239,259c1.5,1,1.9,2.4,1.6,4.2c-2.7,0.4-5.4,0.1-8.3,0.2c0.6-2.1,1.8-3.5,3.5-4.3
				C236.9,259,238,259,239,259z"/>
			<path class="st20" d="M239,259c-1.1,0-2.1,0-3.2,0c0.1-0.8,0.7-0.8,1.3-0.8C237.8,258.3,238.7,258,239,259z"/>
			<path class="st24" d="M23.5,258.9c1.4-0.3,2.6,0.4,3.3,1.6c0.6,1.1,1,2.4,0.7,3.7c-0.1,0.4-0.2,0.7-0.2,1.1c-0.1,2-1,3.6-2.1,5.1
				c-1.1,1.7-3.7,2.4-5.6,1.6c-1.6-0.7-2.1-2.1-2.2-3.6c-0.3-2.4,0.2-4.7,1.4-6.8C19.8,260,21.2,258.6,23.5,258.9z"/>
		</g>
	</g>
</g>
</svg>
